<svg xmlns="http://www.w3.org/2000/svg" viewBox="0 0 40 40" width="40px" height="40px"><path fill="#98ccfd" d="M22.934,30.529c4.531-0.497,8.082-2.106,10.408-3.512l-0.828-1.289 c-2.179,1.31-5.495,2.827-9.738,3.294c-0.026-0.228-0.047-0.452-0.063-0.68c-0.215-2.65-0.215-5.345,0-7.999l0.063-0.822h-4.678 c0.335-2.578,0.822-5.162,1.451-7.69c0.676-2.716,1.514-5.416,2.52-8.045c0.031-0.086,0.063-0.168,0.1-0.254H4.119 C2.673,3.531,1.5,4.668,1.5,6.069v28.384c0,1.142,0.959,2.071,2.137,2.071H24.05c-0.026-0.086-0.042-0.168-0.068-0.254 C23.526,34.377,23.175,32.458,22.934,30.529z"/><path fill="#4788c7" d="M24.723,37.023H3.637C2.183,37.023,1,35.87,1,34.453V6.069c0-1.675,1.399-3.038,3.119-3.038h18.807 l-0.296,0.696c-0.033,0.077-0.061,0.15-0.09,0.229c-0.979,2.56-1.82,5.246-2.504,7.994c-0.577,2.321-1.036,4.696-1.364,7.068 h4.645l-0.104,1.36c-0.213,2.633-0.213,5.297,0,7.922c0.003,0.055,0.008,0.108,0.012,0.162c3.976-0.526,7.091-1.998,9.033-3.165 l0.416-0.25l1.367,2.13l-0.439,0.266c-2.148,1.299-5.618,2.939-10.106,3.521c0.235,1.736,0.562,3.479,0.973,5.187L24.723,37.023z M4.119,4.031C2.951,4.031,2,4.945,2,6.069v28.384c0,0.866,0.734,1.57,1.637,1.57h19.773c-0.421-1.805-0.747-3.624-0.973-5.432 l-0.063-0.504l0.504-0.056c4.252-0.467,7.594-1.936,9.762-3.183l-0.288-0.447c-2.131,1.222-5.405,2.663-9.522,3.116l-0.496,0.055 l-0.056-0.495c-0.026-0.236-0.048-0.466-0.064-0.702c-0.216-2.672-0.216-5.391,0-8.074l0.021-0.282H17.53l0.074-0.564 c0.337-2.597,0.829-5.203,1.461-7.746c0.656-2.634,1.455-5.215,2.377-7.678H4.119z"/><path fill="#dff0fe" d="M36.351,3.578H21.793c-1.011,2.668-1.853,5.409-2.532,8.165c-0.632,2.565-1.121,5.188-1.458,7.805 h4.702l-0.063,0.835c-0.216,2.694-0.216,5.43,0,8.119c0.016,0.232,0.037,0.458,0.063,0.69c4.265-0.474,7.597-2.014,9.788-3.343 l0.832,1.308c-2.338,1.427-5.907,3.06-10.462,3.565c0.242,1.958,0.595,3.905,1.053,5.826h12.636c1.037,0,1.885-0.829,1.885-1.844 V5.422C38.236,4.407,37.388,3.578,36.351,3.578z M30.338,14.911h-1.58V9.759h1.58V14.911z"/><path fill="#4788c7" d="M21.83,4.061c-0.931,2.511-1.713,5.082-2.351,7.666c-0.632,2.561-1.121,5.178-1.458,7.79h4.702 L22.66,20.35c-0.216,2.689-0.216,5.42,0,8.104c0.016,0.231,0.037,0.458,0.063,0.689c0.042,0.509,0.1,1.018,0.158,1.527 c0.242,1.954,0.595,3.898,1.053,5.816c0.026,0.087,0.042,0.17,0.068,0.257c0.021,0.087,0.042,0.17,0.063,0.257h-1.627 c-0.021-0.082-0.042-0.17-0.063-0.257c-0.021-0.082-0.037-0.17-0.058-0.257c-0.442-1.872-0.779-3.774-1.011-5.687 c-0.063-0.509-0.121-1.023-0.163-1.537c-0.026-0.226-0.047-0.458-0.063-0.684c-0.195-2.494-0.216-5.013-0.058-7.518h-4.775 l0.1-0.859c0.347-2.962,0.885-5.934,1.595-8.834c0.642-2.628,1.443-5.24,2.385-7.79c0.032-0.087,0.063-0.175,0.1-0.257 c0.026-0.087,0.063-0.175,0.095-0.257h1.69c-0.037,0.087-0.068,0.17-0.1,0.257c-0.037,0.087-0.068,0.17-0.1,0.257 C21.951,3.738,21.89,3.899,21.83,4.061"/><path fill="#4788c7" d="M33.311 27.094c-2.338 1.427-5.907 3.06-10.462 3.565-.511.062-1.037.103-1.574.129-.416.021-.842.031-1.274.031h-.279c-5.823-.062-10.304-2.061-13.041-3.725l.832-1.308c2.569 1.556 6.771 3.431 12.231 3.488.463.005.921 0 1.369-.026.537-.021 1.069-.062 1.58-.119 4.265-.474 7.597-2.014 9.788-3.343L33.311 27.094zM9.466 9.697H11.046V14.849H9.466zM28.821 9.791H30.401000000000003V14.943000000000001H28.821z"/><path fill="#4788c7" d="M39.008,5.511v29.04c0,1.37-1.11,2.48-2.48,2.48h-12.49c-0.02-0.09-0.04-0.17-0.06-0.26 c-0.03-0.09-0.04-0.17-0.07-0.26c-0.04-0.16-0.08-0.32-0.11-0.48h12.73c0.82,0,1.48-0.66,1.48-1.48V5.511 c0-0.4-0.15-0.77-0.43-1.05c-0.4-0.4-0.91-0.43-1.05-0.43h-14.72c0.06-0.16,0.12-0.32,0.18-0.48c0.03-0.09,0.06-0.17,0.1-0.26 c0.03-0.09,0.06-0.17,0.1-0.26h14.34c0.31,0,1.1,0.07,1.75,0.73C38.747,4.221,39.008,4.851,39.008,5.511z"/></svg>